<mxfile host="65bd71144e" modified="2021-02-06T14:20:43.101Z" agent="5.0 (Windows NT 10.0; Win64; x64) AppleWebKit/537.36 (KHTML, like Gecko) Code/1.53.0 Chrome/87.0.4280.141 Electron/11.2.1 Safari/537.36" etag="JEVNtlcG01026FODj--D" version="13.10.0" type="embed">
    <diagram id="qN5FVON14wmQZqDyQIMe" name="My Home Setup">
        <mxGraphModel dx="602" dy="575" grid="0" gridSize="10" guides="1" tooltips="1" connect="1" arrows="1" fold="1" page="1" pageScale="1" pageWidth="1100" pageHeight="850" math="0" shadow="0">
            <root>
                <mxCell id="0"/>
                <mxCell id="1" parent="0"/>
                <mxCell id="2" value="" style="verticalAlign=top;verticalLabelPosition=bottom;labelPosition=center;align=center;html=1;outlineConnect=0;gradientDirection=north;strokeWidth=2;shape=mxgraph.networks.desktop_pc;" parent="1" vertex="1">
                    <mxGeometry x="70" y="250" width="30" height="60" as="geometry"/>
                </mxCell>
                <mxCell id="3" value="HP EliteBook 850 G6" style="shape=mxgraph.cisco.computers_and_peripherals.laptop;html=1;pointerEvents=1;dashed=0;strokeWidth=2;verticalLabelPosition=bottom;verticalAlign=top;align=center;outlineConnect=0;" parent="1" vertex="1">
                    <mxGeometry x="40" y="80" width="90" height="61" as="geometry"/>
                </mxCell>
                <mxCell id="10" style="edgeStyle=orthogonalEdgeStyle;orthogonalLoop=1;jettySize=auto;html=1;entryX=0.75;entryY=0;entryDx=0;entryDy=0;" parent="1" source="4" target="5" edge="1">
                    <mxGeometry relative="1" as="geometry">
                        <Array as="points">
                            <mxPoint x="810" y="50"/>
                            <mxPoint x="300" y="50"/>
                        </Array>
                    </mxGeometry>
                </mxCell>
                <mxCell id="19" value="HDMI" style="edgeLabel;html=1;align=center;verticalAlign=middle;resizable=0;points=[];" parent="10" vertex="1" connectable="0">
                    <mxGeometry x="0.2944" y="2" relative="1" as="geometry">
                        <mxPoint y="-3" as="offset"/>
                    </mxGeometry>
                </mxCell>
                <mxCell id="11" style="edgeStyle=orthogonalEdgeStyle;orthogonalLoop=1;jettySize=auto;html=1;entryX=0.5;entryY=1;entryDx=0;entryDy=0;entryPerimeter=0;" parent="1" source="4" target="2" edge="1">
                    <mxGeometry relative="1" as="geometry">
                        <Array as="points">
                            <mxPoint x="735" y="330"/>
                            <mxPoint x="85" y="330"/>
                        </Array>
                    </mxGeometry>
                </mxCell>
                <mxCell id="22" value="Mini Display" style="edgeLabel;html=1;align=center;verticalAlign=middle;resizable=0;points=[];" parent="11" vertex="1" connectable="0">
                    <mxGeometry x="0.2012" y="-3" relative="1" as="geometry">
                        <mxPoint x="82" y="3" as="offset"/>
                    </mxGeometry>
                </mxCell>
                <mxCell id="4" value="Dell U2415" style="html=1;verticalLabelPosition=bottom;align=center;verticalAlign=top;strokeWidth=2;shadow=0;dashed=0;shape=mxgraph.ios7.icons.monitor;" parent="1" vertex="1">
                    <mxGeometry x="760" y="157.75" width="100" height="65.5" as="geometry"/>
                </mxCell>
                <mxCell id="6" style="edgeStyle=orthogonalEdgeStyle;orthogonalLoop=1;jettySize=auto;html=1;entryX=0.95;entryY=0.5;entryDx=0;entryDy=0;entryPerimeter=0;" parent="1" source="5" target="3" edge="1">
                    <mxGeometry relative="1" as="geometry"/>
                </mxCell>
                <mxCell id="18" value="USB C" style="edgeLabel;html=1;align=center;verticalAlign=middle;resizable=0;points=[];" parent="6" vertex="1" connectable="0">
                    <mxGeometry x="0.31" y="4" relative="1" as="geometry">
                        <mxPoint x="15" y="-4" as="offset"/>
                    </mxGeometry>
                </mxCell>
                <mxCell id="45" value="Ethernet" style="edgeStyle=orthogonalEdgeStyle;curved=0;rounded=1;orthogonalLoop=1;jettySize=auto;html=1;exitX=0;exitY=0.75;exitDx=0;exitDy=0;endArrow=none;endFill=0;startArrow=classic;startFill=1;" parent="1" source="5" target="41" edge="1">
                    <mxGeometry x="0.4912" relative="1" as="geometry">
                        <mxPoint as="offset"/>
                    </mxGeometry>
                </mxCell>
                <mxCell id="5" value="Docking Station" style="whiteSpace=wrap;html=1;aspect=fixed;" parent="1" vertex="1">
                    <mxGeometry x="240" y="70.5" width="80" height="80" as="geometry"/>
                </mxCell>
                <mxCell id="8" style="edgeStyle=orthogonalEdgeStyle;orthogonalLoop=1;jettySize=auto;html=1;entryX=1;entryY=0.5;entryDx=0;entryDy=0;entryPerimeter=0;exitX=0.5;exitY=1;exitDx=0;exitDy=0;" parent="1" source="7" target="2" edge="1">
                    <mxGeometry relative="1" as="geometry">
                        <Array as="points">
                            <mxPoint x="390" y="280"/>
                        </Array>
                    </mxGeometry>
                </mxCell>
                <mxCell id="21" value="USB" style="edgeLabel;html=1;align=center;verticalAlign=middle;resizable=0;points=[];" parent="8" vertex="1" connectable="0">
                    <mxGeometry x="0.2231" relative="1" as="geometry">
                        <mxPoint as="offset"/>
                    </mxGeometry>
                </mxCell>
                <mxCell id="9" style="edgeStyle=orthogonalEdgeStyle;orthogonalLoop=1;jettySize=auto;html=1;exitX=0.5;exitY=0;exitDx=0;exitDy=0;" parent="1" source="7" target="5" edge="1">
                    <mxGeometry relative="1" as="geometry"/>
                </mxCell>
                <mxCell id="20" value="USB" style="edgeLabel;html=1;align=center;verticalAlign=middle;resizable=0;points=[];" parent="9" vertex="1" connectable="0">
                    <mxGeometry x="0.1576" y="-1" relative="1" as="geometry">
                        <mxPoint x="-3.3099999999999987" y="1" as="offset"/>
                    </mxGeometry>
                </mxCell>
                <mxCell id="7" value="USB Switch&lt;br&gt;Selector&lt;br&gt;4 to 2" style="whiteSpace=wrap;html=1;aspect=fixed;" parent="1" vertex="1">
                    <mxGeometry x="350" y="143.25" width="80" height="80" as="geometry"/>
                </mxCell>
                <mxCell id="14" value="USB" style="edgeStyle=orthogonalEdgeStyle;orthogonalLoop=1;jettySize=auto;html=1;entryX=1;entryY=0.25;entryDx=0;entryDy=0;" parent="1" source="13" target="7" edge="1">
                    <mxGeometry relative="1" as="geometry">
                        <mxPoint x="450" y="170" as="targetPoint"/>
                    </mxGeometry>
                </mxCell>
                <mxCell id="13" value="HyperX Alloy" style="aspect=fixed;pointerEvents=1;shadow=0;dashed=0;html=1;labelPosition=center;verticalLabelPosition=bottom;verticalAlign=top;align=center;shape=mxgraph.mscae.enterprise.keyboard;" parent="1" vertex="1">
                    <mxGeometry x="548.34" y="60" width="83.33" height="50" as="geometry"/>
                </mxCell>
                <mxCell id="17" value="USB" style="edgeStyle=orthogonalEdgeStyle;orthogonalLoop=1;jettySize=auto;html=1;entryX=1;entryY=0.5;entryDx=0;entryDy=0;" parent="1" source="16" target="7" edge="1">
                    <mxGeometry x="0.1586" relative="1" as="geometry">
                        <mxPoint x="460" y="183" as="targetPoint"/>
                        <Array as="points">
                            <mxPoint x="520" y="183"/>
                            <mxPoint x="520" y="183"/>
                        </Array>
                        <mxPoint as="offset"/>
                    </mxGeometry>
                </mxCell>
                <mxCell id="16" value="HyperX Pulsefire" style="aspect=fixed;pointerEvents=1;shadow=0;dashed=0;html=1;labelPosition=center;verticalLabelPosition=bottom;verticalAlign=top;align=center;shape=mxgraph.mscae.enterprise.mouse;" parent="1" vertex="1">
                    <mxGeometry x="575.01" y="157.75" width="30" height="50" as="geometry"/>
                </mxCell>
                <mxCell id="25" value="USB" style="edgeStyle=orthogonalEdgeStyle;orthogonalLoop=1;jettySize=auto;html=1;entryX=1;entryY=0.75;entryDx=0;entryDy=0;" parent="1" source="24" target="7" edge="1">
                    <mxGeometry x="0.1075" relative="1" as="geometry">
                        <Array as="points">
                            <mxPoint x="490" y="275"/>
                            <mxPoint x="490" y="203"/>
                        </Array>
                        <mxPoint as="offset"/>
                    </mxGeometry>
                </mxCell>
                <mxCell id="24" value="Logitech C922" style="pointerEvents=1;shadow=0;dashed=0;html=1;labelPosition=center;verticalLabelPosition=bottom;verticalAlign=top;outlineConnect=0;align=center;shape=mxgraph.office.devices.webcam;" parent="1" vertex="1">
                    <mxGeometry x="575" y="250" width="40" height="50" as="geometry"/>
                </mxCell>
                <mxCell id="29" value="&lt;span style=&quot;text-align: left&quot;&gt;&lt;font style=&quot;font-size: 8px&quot;&gt;https://www.aliexpress.com/item/1005001420283177.html&lt;/font&gt;&lt;/span&gt;" style="text;html=1;align=center;verticalAlign=middle;resizable=0;points=[];autosize=1;" parent="1" vertex="1">
                    <mxGeometry x="260" y="220" width="220" height="20" as="geometry"/>
                </mxCell>
                <mxCell id="30" value="HP USB-C Dock G5" style="text;html=1;align=center;verticalAlign=middle;resizable=0;points=[];autosize=1;" parent="1" vertex="1">
                    <mxGeometry x="220" y="150" width="120" height="20" as="geometry"/>
                </mxCell>
                <mxCell id="36" style="edgeStyle=orthogonalEdgeStyle;curved=0;rounded=1;orthogonalLoop=1;jettySize=auto;html=1;entryX=0.25;entryY=0;entryDx=0;entryDy=0;" parent="1" source="32" target="5" edge="1">
                    <mxGeometry relative="1" as="geometry">
                        <Array as="points">
                            <mxPoint x="260" y="20"/>
                        </Array>
                    </mxGeometry>
                </mxCell>
                <mxCell id="37" value="USB" style="edgeLabel;html=1;align=center;verticalAlign=middle;resizable=0;points=[];" parent="36" vertex="1" connectable="0">
                    <mxGeometry x="-0.1134" y="-2" relative="1" as="geometry">
                        <mxPoint as="offset"/>
                    </mxGeometry>
                </mxCell>
                <mxCell id="32" value="" style="verticalLabelPosition=bottom;shadow=0;dashed=0;align=center;html=1;verticalAlign=top;shape=mxgraph.electrical.radio.headphones;pointerEvents=1;rounded=0;" parent="1" vertex="1">
                    <mxGeometry x="880" y="14.5" width="66" height="56" as="geometry"/>
                </mxCell>
                <mxCell id="48" style="edgeStyle=orthogonalEdgeStyle;curved=0;rounded=1;orthogonalLoop=1;jettySize=auto;html=1;entryX=1;entryY=0.5;entryDx=0;entryDy=0;startArrow=none;startFill=0;endArrow=classic;endFill=1;" parent="1" source="34" target="47" edge="1">
                    <mxGeometry relative="1" as="geometry">
                        <Array as="points">
                            <mxPoint x="910" y="430"/>
                        </Array>
                    </mxGeometry>
                </mxCell>
                <mxCell id="49" value="Audiojack" style="edgeLabel;html=1;align=center;verticalAlign=middle;resizable=0;points=[];" parent="48" vertex="1" connectable="0">
                    <mxGeometry x="0.5365" y="1" relative="1" as="geometry">
                        <mxPoint x="87.67" y="-1" as="offset"/>
                    </mxGeometry>
                </mxCell>
                <mxCell id="34" value="SteelSeries Arctis 3" style="verticalLabelPosition=bottom;shadow=0;dashed=0;align=center;html=1;verticalAlign=top;shape=mxgraph.electrical.radio.headphones;pointerEvents=1;rounded=0;" parent="1" vertex="1">
                    <mxGeometry x="877" y="290" width="66" height="56" as="geometry"/>
                </mxCell>
                <mxCell id="38" value="Razer Thresher 7.1" style="text;html=1;align=center;verticalAlign=middle;resizable=0;points=[];autosize=1;" parent="1" vertex="1">
                    <mxGeometry x="850" y="80" width="120" height="20" as="geometry"/>
                </mxCell>
                <mxCell id="42" style="edgeStyle=orthogonalEdgeStyle;curved=0;rounded=1;orthogonalLoop=1;jettySize=auto;html=1;entryX=0.5;entryY=0;entryDx=0;entryDy=0;entryPerimeter=0;" parent="1" source="41" target="2" edge="1">
                    <mxGeometry relative="1" as="geometry"/>
                </mxCell>
                <mxCell id="46" value="Ethernet" style="edgeLabel;html=1;align=center;verticalAlign=middle;resizable=0;points=[];" parent="42" vertex="1" connectable="0">
                    <mxGeometry x="0.0442" y="2" relative="1" as="geometry">
                        <mxPoint x="21.6" y="-2" as="offset"/>
                    </mxGeometry>
                </mxCell>
                <mxCell id="41" value="TP-Link Ancher 7" style="aspect=fixed;pointerEvents=1;shadow=0;dashed=0;html=1;labelPosition=center;verticalLabelPosition=bottom;verticalAlign=top;align=center;shape=mxgraph.mscae.enterprise.router;rounded=0;" parent="1" vertex="1">
                    <mxGeometry x="155.9" y="190" width="64.1" height="50" as="geometry"/>
                </mxCell>
                <mxCell id="50" style="edgeStyle=orthogonalEdgeStyle;curved=0;rounded=1;orthogonalLoop=1;jettySize=auto;html=1;entryX=0;entryY=0.5;entryDx=0;entryDy=0;entryPerimeter=0;startArrow=none;startFill=0;endArrow=classic;endFill=1;" parent="1" source="47" target="2" edge="1">
                    <mxGeometry relative="1" as="geometry"/>
                </mxCell>
                <mxCell id="51" value="Audiojack" style="edgeLabel;html=1;align=center;verticalAlign=middle;resizable=0;points=[];" parent="50" vertex="1" connectable="0">
                    <mxGeometry x="-0.2048" y="-2" relative="1" as="geometry">
                        <mxPoint y="2" as="offset"/>
                    </mxGeometry>
                </mxCell>
                <mxCell id="47" value="Stereosystem" style="whiteSpace=wrap;html=1;aspect=fixed;" parent="1" vertex="1">
                    <mxGeometry x="430" y="390" width="80" height="80" as="geometry"/>
                </mxCell>
                <mxCell id="53" value="Microlab B55" style="text;whiteSpace=wrap;html=1;" parent="1" vertex="1">
                    <mxGeometry x="430" y="470" width="80" height="30" as="geometry"/>
                </mxCell>
                <mxCell id="57" value="USB" style="edgeStyle=orthogonalEdgeStyle;curved=0;rounded=1;orthogonalLoop=1;jettySize=auto;html=1;entryX=0.02;entryY=0.02;entryDx=0;entryDy=0;entryPerimeter=0;startArrow=none;startFill=0;endArrow=classic;endFill=1;" parent="1" source="54" target="2" edge="1">
                    <mxGeometry x="-0.2851" relative="1" as="geometry">
                        <Array as="points">
                            <mxPoint x="30" y="540"/>
                            <mxPoint x="30" y="251"/>
                        </Array>
                        <mxPoint as="offset"/>
                    </mxGeometry>
                </mxCell>
                <mxCell id="54" value="Samson C01U" style="html=1;verticalLabelPosition=bottom;align=center;labelBackgroundColor=none;verticalAlign=top;strokeWidth=2;shadow=0;dashed=0;shape=mxgraph.ios7.icons.microphone;rounded=0;" parent="1" vertex="1">
                    <mxGeometry x="898" y="520" width="30" height="50" as="geometry"/>
                </mxCell>
            </root>
        </mxGraphModel>
    </diagram>
</mxfile>